<?xml version="1.0" standalone="no"?><!DOCTYPE svg PUBLIC "-//W3C//DTD SVG 1.1//EN" "http://www.w3.org/Graphics/SVG/1.1/DTD/svg11.dtd"><svg t="1720770182129" class="icon" viewBox="0 0 1024 1024" version="1.1" xmlns="http://www.w3.org/2000/svg" p-id="4682" xmlns:xlink="http://www.w3.org/1999/xlink" width="200" height="200"><path d="M543.17 495.12H277.81c-15.81 0-29.37 12-30.51 27.76a30 30 0 0 0 29.92 32.24h265.35c15.81 0 29.37-12 30.51-27.76a30 30 0 0 0-29.91-32.24zM543.17 675.12H277.81c-15.81 0-29.37 12-30.51 27.76a30 30 0 0 0 29.92 32.24h265.35c15.81 0 29.37-12 30.51-27.76a30 30 0 0 0-29.91-32.24z" fill="#D0D3D8" p-id="4683"></path><path d="M868.28 124.12H364.12A32.92 32.92 0 0 0 331.2 157v113.12h344a80 80 0 0 1 80 80v344h113.08a32.92 32.92 0 0 0 32.92-32.92V157a32.92 32.92 0 0 0-32.92-32.88z" fill="#D0D3D8" p-id="4684"></path><path d="M868.28 64.12H364.12A92.92 92.92 0 0 0 271.2 157v113.12h-126a80 80 0 0 0-80 80v530a80 80 0 0 0 80 80h530a80 80 0 0 0 80-80v-126h113.08a92.92 92.92 0 0 0 92.92-92.92V157a92.92 92.92 0 0 0-92.92-92.88zM901.2 661.2a32.92 32.92 0 0 1-32.92 32.92H755.2v-344a80 80 0 0 0-80-80h-344V157a32.92 32.92 0 0 1 32.92-32.92h504.16A32.92 32.92 0 0 1 901.2 157z m-206 218.92a20.06 20.06 0 0 1-20 20h-530a20 20 0 0 1-20-20v-530a20 20 0 0 1 20-20h530a20 20 0 0 1 20 20v530z" fill="#878A94" p-id="4685"></path></svg>